<svg width="20" height="20" viewBox="0 0 20 20" fill="none" xmlns="http://www.w3.org/2000/svg">
<g clip-path="url(#clip0_63_346)">
<path d="M18.7812 3.5625H5.34375V1.42188C5.34375 1.0625 5.625 0.78125 5.96875 0.78125H18.1406C18.5 0.78125 18.7812 1.0625 18.7812 1.42188V3.5625Z" fill="#0464B8"/>
<path d="M5.34375 3.5625H9.82812V7.71875H5.34375V3.5625Z" fill="#0377D4"/>
<path d="M9.82812 3.5625H14.3125V7.71875H9.82812V3.5625Z" fill="#29A7EB"/>
<path d="M14.3125 3.5625H18.7969V7.71875H14.3125V3.5625Z" fill="#4FD8FF"/>
<path d="M5.34375 7.71875H9.82812V11.875H5.34375V7.71875Z" fill="#1681D7"/>
<path d="M9.82812 7.71875H14.3125V11.875H9.82812V7.71875Z" fill="#0178D4"/>
<path d="M14.3125 7.71875H18.7969V11.875H14.3125V7.71875Z" fill="#29A7EB"/>
<path d="M9.82812 11.8594H14.3125V16.0156H9.82812V11.8594Z" fill="#0464B8"/>
<path d="M14.3125 11.8594H18.7969V16.0156H14.3125V11.8594Z" fill="#1681D7"/>
<path d="M19.8281 10.7969L18.7969 11.4063V9.65625L19.8125 10.2188C20.0469 10.3281 20.0469 10.6562 19.8281 10.7969Z" fill="#042071"/>
<path d="M19.8281 10.7969L19.7344 10.8594L19.625 10.9219L18.7969 11.4062V11.3906L4.98438 19.2969H18.9062C19.5 19.2969 19.9688 18.8125 19.9688 18.2344L19.9844 10.5156C20 10.6094 19.9375 10.7344 19.8281 10.7969Z" fill="#168FDE"/>
<path d="M19.0625 19.2969H5.125C4.53125 19.2969 4.0625 18.8125 4.0625 18.2344V10.7031L19.0625 19.2969Z" fill="#29A7EB"/>
<path d="M9.21875 15.0781H0.9375C0.390625 15.0781 -0.0625 14.625 -0.0625 14.0781V5.92188C-0.0625 5.375 0.390625 4.92188 0.9375 4.92188H9.21875C9.76562 4.92188 10.2188 5.375 10.2188 5.92188V14.0781C10.2188 14.625 9.78125 15.0781 9.21875 15.0781Z" fill="#1681D7"/>
<path d="M5.07812 12.9531C3.46875 12.9531 2.45312 11.7344 2.45312 10.1094C2.45312 8.39062 3.5625 7.17188 5.15625 7.17188C6.8125 7.17188 7.78125 8.40625 7.78125 10C7.79688 11.8906 6.64062 12.9531 5.07812 12.9531ZM5.14062 12.1406C6.14063 12.1406 6.70312 11.2188 6.70312 10.0469C6.70312 8.98438 6.17188 8 5.14062 8C4.10938 8 3.5625 8.96875 3.5625 10.0937C3.5625 11.2187 4.125 12.1406 5.14062 12.1406Z" fill="white"/>
<path opacity="0.2" d="M10.2344 5.82812V5.92188V14.0781C10.2344 14.625 9.78125 15.0781 9.23438 15.0781H4.0625V15.9687H10.0625C10.6094 15.9687 11.0625 15.5156 11.0625 14.9688V6.8125C11.0625 6.3125 10.7031 5.89062 10.2344 5.82812Z" fill="black"/>
</g>
<defs>
<clipPath id="clip0_63_346">
<rect width="20" height="20" fill="white"/>
</clipPath>
</defs>
</svg>
